<svg width="45" height="45" viewBox="0 0 45 45" fill="none" xmlns="http://www.w3.org/2000/svg">
<path fill-rule="evenodd" clip-rule="evenodd" d="M19.6447 10.8238C18.5434 11.5511 17.2607 12.6494 15.504 14.1551L13.629 15.7623C11.6614 17.4488 10.8021 18.1994 10.3439 19.1956C9.88571 20.1918 9.87501 21.3327 9.87501 23.9243V31.875C9.87501 33.6569 9.87608 34.943 10.0078 35.9232C10.1377 36.8889 10.3861 37.4823 10.8269 37.9231C11.2677 38.3639 11.8611 38.6123 12.8269 38.7422C13.807 38.8739 15.0931 38.875 16.875 38.875H28.125C29.9069 38.875 31.193 38.8739 32.1732 38.7422C33.1389 38.6123 33.7323 38.3639 34.1731 37.9231C34.6139 37.4823 34.8623 36.8889 34.9922 35.9232C35.124 34.943 35.125 33.6569 35.125 31.875V23.9243C35.125 21.3327 35.1143 20.1918 34.6561 19.1956C34.198 18.1994 33.3387 17.4488 31.371 15.7623L29.496 14.1551C27.7393 12.6494 26.4566 11.5511 25.3553 10.8238C24.2657 10.1041 23.4053 9.78357 22.5 9.78357C21.5947 9.78357 20.7343 10.1041 19.6447 10.8238ZM19.0936 9.98933C20.2711 9.21165 21.3245 8.78357 22.5 8.78357C23.6756 8.78357 24.7289 9.21165 25.9064 9.98933C27.0661 10.7553 28.3958 11.895 30.1195 13.3725L32.1246 15.0911C33.9589 16.6631 35.004 17.5588 35.5647 18.7778C36.1253 19.9968 36.1252 21.3732 36.125 23.7889L36.125 31.9136C36.125 33.6487 36.125 35.002 35.9833 36.0564C35.8385 37.133 35.5378 37.9727 34.8802 38.6302C34.2227 39.2878 33.383 39.5885 32.3064 39.7333C31.252 39.875 29.8987 39.875 28.1636 39.875H16.8365C15.1013 39.875 13.7481 39.875 12.6936 39.7333C11.617 39.5885 10.7774 39.2878 10.1198 38.6302C9.46225 37.9727 9.16151 37.133 9.01677 36.0564C8.875 35.002 8.87501 33.6487 8.87501 31.9135L8.87501 23.9243C8.87501 23.8788 8.87501 23.8337 8.87501 23.7889C8.87482 21.3732 8.87471 19.9968 9.43537 18.7778C9.99604 17.5588 11.0411 16.6631 12.8754 15.0911C12.9094 15.062 12.9437 15.0326 12.9782 15.003L14.8805 13.3725C16.6043 11.895 17.9339 10.7553 19.0936 9.98933Z" fill="#222222"/>
<path fill-rule="evenodd" clip-rule="evenodd" d="M17.3125 29.125C17.3125 28.2966 17.9841 27.625 18.8125 27.625H26.1875C27.0159 27.625 27.6875 28.2966 27.6875 29.125V39.375C27.6875 39.6511 27.4636 39.875 27.1875 39.875C26.9114 39.875 26.6875 39.6511 26.6875 39.375V29.125C26.6875 28.8489 26.4636 28.625 26.1875 28.625H18.8125C18.5364 28.625 18.3125 28.8489 18.3125 29.125V39.375C18.3125 39.6511 18.0886 39.875 17.8125 39.875C17.5364 39.875 17.3125 39.6511 17.3125 39.375V29.125Z" fill="#222222"/>
</svg>
