<svg width="357" height="74" viewBox="0 0 357 74" fill="none" xmlns="http://www.w3.org/2000/svg">
    <rect x="0.5" y="0.5" width="356" height="72.2857" fill="white" stroke="#B5B5B5"/>
    <path d="M33.3907 40.8052C35.6501 40.8052 37.4816 38.9737 37.4816 36.7143C37.4816 34.455 35.6501 32.6234 33.3907 32.6234C31.1314 32.6234 29.2998 34.455 29.2998 36.7143C29.2998 38.9737 31.1314 40.8052 33.3907 40.8052Z" stroke="black" stroke-width="1.5" stroke-linecap="round" stroke-linejoin="round"/>
    <path d="M43.4815 40.8051C43.3 41.2164 43.2459 41.6727 43.3261 42.115C43.4063 42.5574 43.6172 42.9656 43.9315 43.287L44.0134 43.3688C44.2669 43.6221 44.4681 43.9229 44.6053 44.2539C44.7426 44.585 44.8132 44.9399 44.8132 45.2983C44.8132 45.6567 44.7426 46.0116 44.6053 46.3427C44.4681 46.6738 44.2669 46.9746 44.0134 47.2279C43.7601 47.4814 43.4593 47.6826 43.1282 47.8199C42.7971 47.9571 42.4422 48.0277 42.0838 48.0277C41.7254 48.0277 41.3705 47.9571 41.0394 47.8199C40.7083 47.6826 40.4076 47.4814 40.1543 47.2279L40.0724 47.1461C39.7511 46.8317 39.3429 46.6208 38.9005 46.5406C38.4582 46.4604 38.0019 46.5145 37.5906 46.6961C37.1873 46.8689 36.8433 47.1559 36.601 47.5218C36.3588 47.8876 36.2287 48.3163 36.227 48.7551V48.987C36.227 49.7103 35.9397 50.404 35.4282 50.9154C34.9167 51.4269 34.223 51.7142 33.4997 51.7142C32.7764 51.7142 32.0827 51.4269 31.5712 50.9154C31.0598 50.404 30.7724 49.7103 30.7724 48.987V48.8642C30.7619 48.4129 30.6158 47.9751 30.3531 47.6079C30.0905 47.2407 29.7234 46.961 29.2997 46.8051C28.8884 46.6236 28.4322 46.5695 27.9898 46.6497C27.5475 46.7299 27.1393 46.9408 26.8179 47.2551L26.7361 47.337C26.4828 47.5905 26.182 47.7917 25.8509 47.9289C25.5198 48.0662 25.1649 48.1368 24.8065 48.1368C24.4481 48.1368 24.0932 48.0662 23.7622 47.9289C23.4311 47.7917 23.1303 47.5905 22.877 47.337C22.6234 47.0837 22.4223 46.7829 22.285 46.4518C22.1478 46.1207 22.0771 45.7658 22.0771 45.4074C22.0771 45.049 22.1478 44.6941 22.285 44.363C22.4223 44.0319 22.6234 43.7312 22.877 43.4779L22.9588 43.3961C23.2732 43.0747 23.4841 42.6665 23.5643 42.2241C23.6445 41.7818 23.5903 41.3255 23.4088 40.9142C23.2359 40.5109 22.9489 40.1669 22.5831 39.9247C22.2172 39.6824 21.7885 39.5523 21.3497 39.5506H21.1179C20.3946 39.5506 19.7009 39.2633 19.1894 38.7518C18.678 38.2403 18.3906 37.5466 18.3906 36.8233C18.3906 36.1 18.678 35.4063 19.1894 34.8949C19.7009 34.3834 20.3946 34.0961 21.1179 34.0961H21.2406C21.692 34.0855 22.1297 33.9394 22.4969 33.6767C22.8642 33.4141 23.1439 33.0471 23.2997 32.6233C23.4812 32.212 23.5354 31.7558 23.4552 31.3134C23.375 30.8711 23.1641 30.4629 22.8497 30.1415L22.7679 30.0597C22.5143 29.8064 22.3132 29.5056 22.1759 29.1745C22.0387 28.8434 21.968 28.4885 21.968 28.1301C21.968 27.7717 22.0387 27.4168 22.1759 27.0858C22.3132 26.7547 22.5143 26.4539 22.7679 26.2006C23.0212 25.947 23.322 25.7459 23.6531 25.6086C23.9841 25.4714 24.339 25.4007 24.6974 25.4007C25.0558 25.4007 25.4107 25.4714 25.7418 25.6086C26.0729 25.7459 26.3737 25.947 26.627 26.2006L26.7088 26.2824C27.0302 26.5968 27.4384 26.8077 27.8807 26.8879C28.3231 26.9681 28.7793 26.9139 29.1906 26.7324H29.2997C29.703 26.5596 30.047 26.2725 30.2893 25.9067C30.5316 25.5408 30.6616 25.1121 30.6634 24.6733V24.4415C30.6634 23.7182 30.9507 23.0245 31.4622 22.513C31.9736 22.0016 32.6673 21.7142 33.3906 21.7142C34.1139 21.7142 34.8076 22.0016 35.3191 22.513C35.8306 23.0245 36.1179 23.7182 36.1179 24.4415V24.5642C36.1196 25.003 36.2497 25.4317 36.492 25.7976C36.7342 26.1634 37.0782 26.4505 37.4815 26.6233C37.8928 26.8048 38.3491 26.859 38.7914 26.7788C39.2338 26.6986 39.642 26.4877 39.9634 26.1733L40.0452 26.0915C40.2985 25.8379 40.5992 25.6368 40.9303 25.4995C41.2614 25.3623 41.6163 25.2916 41.9747 25.2916C42.3331 25.2916 42.688 25.3623 43.0191 25.4995C43.3502 25.6368 43.651 25.8379 43.9043 26.0915C44.1578 26.3448 44.359 26.6456 44.4962 26.9767C44.6335 27.3078 44.7041 27.6626 44.7041 28.0211C44.7041 28.3795 44.6335 28.7343 44.4962 29.0654C44.359 29.3965 44.1578 29.6973 43.9043 29.9506L43.8224 30.0324C43.5081 30.3538 43.2972 30.762 43.217 31.2043C43.1368 31.6467 43.1909 32.1029 43.3724 32.5142V32.6233C43.5453 33.0266 43.8323 33.3706 44.1982 33.6129C44.564 33.8552 44.9927 33.9852 45.4315 33.987H45.6634C46.3867 33.987 47.0804 34.2743 47.5918 34.7858C48.1033 35.2972 48.3906 35.9909 48.3906 36.7142C48.3906 37.4376 48.1033 38.1312 47.5918 38.6427C47.0804 39.1542 46.3867 39.4415 45.6634 39.4415H45.5406C45.1018 39.4433 44.6731 39.5733 44.3073 39.8156C43.9414 40.0578 43.6544 40.4018 43.4815 40.8051Z" stroke="black" stroke-width="1.5" stroke-linecap="round" stroke-linejoin="round"/>
</svg>
