<svg width="284" height="74" viewBox="0 0 284 74" fill="none" xmlns="http://www.w3.org/2000/svg">
<rect x="0.5" y="0.5" width="283" height="72.2857" fill="white" stroke="#B5B5B5"/>
<path d="M30.3149 40.7143C32.6774 40.7143 34.5926 38.8914 34.5926 36.6428C34.5926 34.3943 32.6774 32.5714 30.3149 32.5714C27.9523 32.5714 26.0371 34.3943 26.0371 36.6428C26.0371 38.8914 27.9523 40.7143 30.3149 40.7143Z" stroke="black" stroke-width="1.5" stroke-linecap="round" stroke-linejoin="round"/>
<path d="M40.8667 40.7142C40.6769 41.1236 40.6203 41.5776 40.7041 42.0179C40.788 42.4581 41.0085 42.8644 41.3373 43.1842L41.4228 43.2657C41.688 43.5177 41.8983 43.8171 42.0418 44.1466C42.1853 44.4761 42.2592 44.8293 42.2592 45.186C42.2592 45.5427 42.1853 45.8959 42.0418 46.2254C41.8983 46.5549 41.688 46.8543 41.4228 47.1064C41.158 47.3587 40.8434 47.5589 40.4972 47.6955C40.151 47.8321 39.7799 47.9024 39.4051 47.9024C39.0304 47.9024 38.6593 47.8321 38.3131 47.6955C37.9669 47.5589 37.6523 47.3587 37.3875 47.1064L37.3019 47.0249C36.9659 46.7121 36.539 46.5022 36.0765 46.4224C35.6139 46.3425 35.1368 46.3964 34.7068 46.5771C34.285 46.7491 33.9253 47.0348 33.672 47.3989C33.4186 47.763 33.2827 48.1897 33.2808 48.6264V48.8571C33.2808 49.577 32.9804 50.2674 32.4456 50.7764C31.9107 51.2854 31.1854 51.5714 30.429 51.5714C29.6727 51.5714 28.9473 51.2854 28.4125 50.7764C27.8776 50.2674 27.5772 49.577 27.5772 48.8571V48.7349C27.5661 48.2857 27.4134 47.8501 27.1387 47.4846C26.8641 47.1191 26.4803 46.8408 26.0372 46.6857C25.6071 46.505 25.13 46.4511 24.6675 46.5309C24.2049 46.6108 23.7781 46.8206 23.442 47.1335L23.3565 47.215C23.0916 47.4673 22.7771 47.6675 22.4309 47.8041C22.0847 47.9407 21.7136 48.011 21.3388 48.011C20.964 48.011 20.5929 47.9407 20.2467 47.8041C19.9005 47.6675 19.586 47.4673 19.3211 47.215C19.056 46.9629 18.8456 46.6635 18.7021 46.334C18.5586 46.0045 18.4847 45.6513 18.4847 45.2946C18.4847 44.9379 18.5586 44.5847 18.7021 44.2552C18.8456 43.9257 19.056 43.6263 19.3211 43.3742L19.4067 43.2928C19.7354 42.973 19.9559 42.5667 20.0398 42.1265C20.1237 41.6862 20.0671 41.2321 19.8772 40.8228C19.6965 40.4214 19.3964 40.0791 19.0138 39.8379C18.6312 39.5968 18.183 39.4674 17.7241 39.4657H17.4817C16.7254 39.4657 16 39.1797 15.4652 38.6707C14.9303 38.1616 14.6299 37.4713 14.6299 36.7514C14.6299 36.0315 14.9303 35.3411 15.4652 34.8321C16 34.3231 16.7254 34.0371 17.4817 34.0371H17.61C18.082 34.0266 18.5397 33.8812 18.9237 33.6198C19.3077 33.3584 19.6002 32.9931 19.7632 32.5714C19.953 32.162 20.0096 31.708 19.9257 31.2677C19.8419 30.8275 19.6213 30.4212 19.2926 30.1014L19.2071 30.0199C18.9419 29.7679 18.7316 29.4685 18.5881 29.139C18.4445 28.8095 18.3707 28.4563 18.3707 28.0996C18.3707 27.7429 18.4445 27.3897 18.5881 27.0602C18.7316 26.7307 18.9419 26.4313 19.2071 26.1792C19.4719 25.9269 19.7865 25.7267 20.1327 25.5901C20.4789 25.4535 20.85 25.3832 21.2247 25.3832C21.5995 25.3832 21.9706 25.4535 22.3168 25.5901C22.663 25.7267 22.9775 25.9269 23.2424 26.1792L23.328 26.2607C23.664 26.5735 24.0908 26.7834 24.5534 26.8632C25.016 26.9431 25.493 26.8892 25.9231 26.7085H26.0372C26.4589 26.5365 26.8186 26.2508 27.072 25.8867C27.3253 25.5226 27.4613 25.0959 27.4631 24.6592V24.4285C27.4631 23.7086 27.7636 23.0183 28.2984 22.5092C28.8332 22.0002 29.5586 21.7142 30.3149 21.7142C31.0713 21.7142 31.7967 22.0002 32.3315 22.5092C32.8663 23.0183 33.1668 23.7086 33.1668 24.4285V24.5507C33.1686 24.9874 33.3046 25.414 33.5579 25.7782C33.8113 26.1423 34.1709 26.4279 34.5927 26.5999C35.0228 26.7806 35.4998 26.8345 35.9624 26.7547C36.425 26.6748 36.8518 26.465 37.1878 26.1521L37.2734 26.0707C37.5383 25.8183 37.8528 25.6181 38.199 25.4815C38.5452 25.3449 38.9163 25.2746 39.2911 25.2746C39.6658 25.2746 40.0369 25.3449 40.3832 25.4815C40.7294 25.6181 41.0439 25.8183 41.3087 26.0707C41.5739 26.3227 41.7842 26.6221 41.9278 26.9516C42.0713 27.2811 42.1451 27.6343 42.1451 27.991C42.1451 28.3477 42.0713 28.7009 41.9278 29.0304C41.7842 29.3599 41.5739 29.6593 41.3087 29.9114L41.2232 29.9928C40.8945 30.3127 40.6739 30.7189 40.5901 31.1591C40.5062 31.5994 40.5628 32.0535 40.7526 32.4628V32.5714C40.9334 32.9728 41.2335 33.3151 41.6161 33.5562C41.9986 33.7974 42.4469 33.9268 42.9058 33.9285H43.1482C43.9045 33.9285 44.6299 34.2145 45.1647 34.7235C45.6995 35.2325 46 35.9229 46 36.6428C46 37.3627 45.6995 38.0531 45.1647 38.5621C44.6299 39.0711 43.9045 39.3571 43.1482 39.3571H43.0198C42.561 39.3588 42.1127 39.4882 41.7301 39.7294C41.3476 39.9705 41.0475 40.3128 40.8667 40.7142Z" stroke="black" stroke-width="1.5" stroke-linecap="round" stroke-linejoin="round"/>
</svg>
