<svg width="360" height="74" viewBox="0 0 360 74" fill="none" xmlns="http://www.w3.org/2000/svg">
    <rect x="0.5" y="0.5" width="359" height="72.2857" fill="white" stroke="#B5B5B5"/>
    <path d="M49.6367 33.987C49.6367 43.5324 34.6367 51.7142 34.6367 51.7142C34.6367 51.7142 19.6367 43.5324 19.6367 33.987C19.6367 30.732 21.2171 27.6104 24.0301 25.3088C26.8432 23.0072 30.6585 21.7142 34.6367 21.7142C38.615 21.7142 42.4303 23.0072 45.2433 25.3088C48.0564 27.6104 49.6367 30.732 49.6367 33.987Z" stroke="black" stroke-width="1.5" stroke-linecap="round" stroke-linejoin="round"/>
    <path d="M34.6396 38.0778C37.4011 38.0778 39.6397 36.2463 39.6397 33.9869C39.6397 31.7276 37.4011 29.896 34.6396 29.896C31.8782 29.896 29.6396 31.7276 29.6396 33.9869C29.6396 36.2463 31.8782 38.0778 34.6396 38.0778Z" stroke="black" stroke-width="1.5" stroke-linecap="round" stroke-linejoin="round"/>
</svg>

