<svg width="284" height="74" viewBox="0 0 284 74" fill="none" xmlns="http://www.w3.org/2000/svg">
<rect x="0.5" y="0.5" width="283" height="72.2857" fill="white" stroke="#B5B5B5"/>
<path d="M46 33.9285C46 43.4285 30.7456 51.5714 30.7456 51.5714C30.7456 51.5714 15.4912 43.4285 15.4912 33.9285C15.4912 30.6891 17.0984 27.5823 19.9591 25.2917C22.8199 23.0011 26.6999 21.7142 30.7456 21.7142C34.7913 21.7142 38.6713 23.0011 41.5321 25.2917C44.3928 27.5823 46 30.6891 46 33.9285Z" stroke="black" stroke-width="1.5" stroke-linecap="round" stroke-linejoin="round"/>
<path d="M30.7469 37.9999C33.5552 37.9999 35.8317 36.1771 35.8317 33.9285C35.8317 31.6799 33.5552 29.8571 30.7469 29.8571C27.9387 29.8571 25.6621 31.6799 25.6621 33.9285C25.6621 36.1771 27.9387 37.9999 30.7469 37.9999Z" stroke="black" stroke-width="1.5" stroke-linecap="round" stroke-linejoin="round"/>
</svg>
