<svg width="358" height="74" viewBox="0 0 358 74" fill="none" xmlns="http://www.w3.org/2000/svg">
    <rect x="0.5" y="0.5" width="357" height="72.2857" fill="white" stroke="#B5B5B5"/>
    <path d="M26.6963 23.0714L21.6963 29.0714V50.0714C21.6963 50.8671 22.0475 51.6301 22.6726 52.1927C23.2977 52.7553 24.1456 53.0714 25.0296 53.0714H48.363C49.247 53.0714 50.0949 52.7553 50.72 52.1927C51.3451 51.6301 51.6963 50.8671 51.6963 50.0714V29.0714L46.6963 23.0714H26.6963Z" stroke="black" stroke-width="2" stroke-linecap="round" stroke-linejoin="round"/>
    <path d="M21.6963 29.0714H51.6963" stroke="black" stroke-width="2" stroke-linecap="round" stroke-linejoin="round"/>
    <path d="M43.3646 35.0714C43.3646 36.6627 42.6622 38.1888 41.412 39.3141C40.1617 40.4393 38.466 41.0714 36.6979 41.0714C34.9298 41.0714 33.2341 40.4393 31.9839 39.3141C30.7336 38.1888 30.0313 36.6627 30.0312 35.0714" stroke="black" stroke-width="2" stroke-linecap="round" stroke-linejoin="round"/>
</svg>

