<svg width="284" height="74" viewBox="0 0 284 74" fill="none" xmlns="http://www.w3.org/2000/svg">
<rect x="0.5" y="0.5" width="283" height="72.2857" fill="white" stroke="#B5B5B5"/>
<path d="M22.0099 23.0714L17.2119 28.5V47.5C17.2119 48.2199 17.5489 48.9102 18.1488 49.4193C18.7487 49.9283 19.5622 50.2143 20.4106 50.2143H42.8013C43.6497 50.2143 44.4633 49.9283 45.0631 49.4193C45.663 48.9102 46 48.2199 46 47.5V28.5L41.202 23.0714H22.0099Z" stroke="black" stroke-width="2" stroke-linecap="round" stroke-linejoin="round"/>
<path d="M17.2119 28.5H46" stroke="black" stroke-width="2" stroke-linecap="round" stroke-linejoin="round"/>
<path d="M38.0027 33.9286C38.0027 35.3683 37.3287 36.7491 36.129 37.7672C34.9292 38.7852 33.302 39.3572 31.6054 39.3572C29.9087 39.3572 28.2815 38.7852 27.0817 37.7672C25.882 36.7491 25.208 35.3683 25.208 33.9286" stroke="black" stroke-width="2" stroke-linecap="round" stroke-linejoin="round"/>
</svg>
