<svg width="42" height="42" viewBox="0 0 42 42" fill="none" xmlns="http://www.w3.org/2000/svg">
<circle cx="21" cy="21" r="21" fill="#B4E8FF"/>
<path d="M19.698 27.108C18.786 27.108 17.922 26.964 17.106 26.676C16.302 26.376 15.654 25.98 15.162 25.488L15.792 24.462C16.2 24.882 16.746 25.23 17.43 25.506C18.126 25.782 18.882 25.92 19.698 25.92C20.742 25.92 21.54 25.692 22.092 25.236C22.656 24.78 22.938 24.168 22.938 23.4C22.938 22.632 22.662 22.02 22.11 21.564C21.57 21.108 20.712 20.88 19.536 20.88H18.636V19.926L22.524 15.048L22.704 15.552H15.684V14.4H23.784V15.318L19.896 20.196L19.266 19.782H19.752C21.264 19.782 22.392 20.118 23.136 20.79C23.892 21.462 24.27 22.326 24.27 23.382C24.27 24.09 24.102 24.726 23.766 25.29C23.43 25.854 22.92 26.298 22.236 26.622C21.564 26.946 20.718 27.108 19.698 27.108Z" fill="black"/>
</svg>
