<svg width="42" height="42" viewBox="0 0 42 42" fill="none" xmlns="http://www.w3.org/2000/svg">
<circle cx="21" cy="21" r="21" fill="#B4E8FF"/>
<path d="M15.702 27V26.082L20.94 20.952C21.42 20.484 21.78 20.076 22.02 19.728C22.26 19.368 22.422 19.032 22.506 18.72C22.59 18.408 22.632 18.114 22.632 17.838C22.632 17.106 22.38 16.53 21.876 16.11C21.384 15.69 20.652 15.48 19.68 15.48C18.936 15.48 18.276 15.594 17.7 15.822C17.136 16.05 16.65 16.404 16.242 16.884L15.324 16.092C15.816 15.516 16.446 15.072 17.214 14.76C17.982 14.448 18.84 14.292 19.788 14.292C20.64 14.292 21.378 14.43 22.002 14.706C22.626 14.97 23.106 15.36 23.442 15.876C23.79 16.392 23.964 16.998 23.964 17.694C23.964 18.102 23.904 18.504 23.784 18.9C23.676 19.296 23.472 19.716 23.172 20.16C22.884 20.592 22.458 21.084 21.894 21.636L17.088 26.352L16.728 25.848H24.54V27H15.702Z" fill="black"/>
</svg>
