<svg width="409" height="363" viewBox="0 0 409 363" fill="none" xmlns="http://www.w3.org/2000/svg">
<ellipse cx="202.122" cy="208.389" rx="159.32" ry="150.13" fill="#FC96BD"/>
<ellipse cx="393.544" cy="72.8241" rx="15.4564" ry="14.5648" fill="#FC96BD"/>
<ellipse cx="24.968" cy="22.4074" rx="24.968" ry="22.4074" fill="#FC96BD"/>
<ellipse cx="11.8895" cy="305.861" rx="11.8895" ry="12.3241" fill="#FC96BD"/>
<ellipse cx="365.009" cy="358.519" rx="5.94477" ry="4.48148" fill="#FC96BD"/>
<path d="M190.286 248.986C186.907 248.986 183.528 247.622 181.598 244.893L154.568 212.145C150.707 207.597 151.672 201.229 156.499 197.591C161.326 193.952 168.083 194.862 171.944 199.41L190.286 221.697L230.83 172.12C234.692 167.572 241.449 166.662 246.276 170.301C251.103 173.94 252.068 180.307 248.207 184.855L198.974 244.893C196.561 247.167 193.665 248.986 190.286 248.986Z" fill="white"/>
<ellipse cx="269.893" cy="231.917" rx="5.94477" ry="5.60185" fill="white"/>
<ellipse cx="114.14" cy="170.296" rx="9.51163" ry="8.96296" fill="white"/>
<ellipse cx="253.247" cy="122.12" rx="3.56686" ry="3.36111" fill="white"/>
<ellipse cx="154.564" cy="280.093" rx="4.75581" ry="4.48148" fill="white"/>
<ellipse cx="206.878" cy="172.537" rx="2.37791" ry="2.24074" fill="white"/>
</svg>
